<svg version="1.1" 
  xmlns="http://www.w3.org/2000/svg" 
  xmlns:xlink="http://www.w3.org/1999/xlink" width="151" height="68">
  <g id="Frame-0" fill="none" fill-rule="nonzero" stroke="none" stroke-width="none" stroke-linecap="none" stroke-linejoin="miter" stroke-miterlimit="10" stroke-dasharray="" stroke-dashoffset="0" font-family="none" font-weight="none" font-size="none" text-anchor="none" style="mix-blend-mode: normal" visibility="hidden">
    <g id="Drawing" stroke="#000000" stroke-width="5" stroke-linecap="round">
      <path d="M13.5,10c0,14.2074 3,27.11534 3,41" id="Stroke-1297461289"/>
      <path d="M13.5,8c7.15151,0 22.8204,-2.4612 19,9c-1.87162,5.61487 -7.24701,5.81175 -12,7c-0.19457,0.04864 -6.51389,1.48611 -5,3c4.493,4.493 35.47595,-4.47595 19,12c-2.26606,2.26606 -3.24406,8.08135 -6,9c-2.96874,0.98958 -7.76833,0 -11,0" id="Stroke-1297461291"/>
      <path d="M55.5,31c22.71044,0 -6,32.50591 -6,14c0,-3.33333 0,-6.66667 0,-10c0,-2.27635 -0.10409,-3.89591 1,-5c7.91232,-7.91232 21.80777,14.80777 25,18" id="Stroke-1297461314"/>
      <path d="M78.5,24c0,4 2,7 2,11c0,2 3,15 3,13c0,-2.9894 6.22662,-15.22662 8,-17c6.74221,-6.74221 15,9.66858 15,15" id="Stroke-1297461316"/>
      <path d="M124.5,27c26.44671,0 7.65701,24.65701 -1,16c-9.36531,-9.36531 6.69458,-19.30542 14,-12c11.04427,11.04427 -16.9994,33.0006 -27,23" id="Stroke-1297461318"/>
    </g>
  </g>
  <g id="Frame-1" fill="none" fill-rule="nonzero" stroke="none" stroke-width="none" stroke-linecap="none" stroke-linejoin="miter" stroke-miterlimit="10" stroke-dasharray="" stroke-dashoffset="0" font-family="none" font-weight="none" font-size="none" text-anchor="none" style="mix-blend-mode: normal" visibility="hidden">
    <g id="Drawing" stroke="#000000" stroke-width="5" stroke-linecap="round">
      <path d="M13.5,7c1.671,0 1,1.58874 1,3c0,12.41708 1,28.21989 1,39" id="Stroke-1297461345"/>
      <path d="M15.5,9c3.80013,-3.80013 23.30082,0.39836 20,7c-1.76429,3.52858 -4.69651,6 -9,6c-0.53617,0 -5.41053,0.79473 -3,2c5.131,2.5655 20.84715,-0.54145 17,11c-2.16701,6.50104 -9.78773,13 -17,13c-2.21978,0 -14.14909,0 -8,0" id="Stroke-1297461347"/>
      <path d="M51.5,26c7.94994,0 21.99715,16.00285 13,25c-6.27359,6.27359 -18,-2.60971 -18,-9c0,-2.47462 -1.12149,-8.75702 0,-11c0.87139,-1.74278 4.36869,-1 6,-1c9.0674,0 9.59826,15.53275 20,19c1.20906,0.40302 4,2.02949 4,3" id="Stroke-1297461349"/>
      <path d="M82.5,25c0,5.33333 0,10.66667 0,16c0,2.66667 0,10.66667 0,8c0,-30.73576 27,-22.07689 27,0" id="Stroke-1297461351"/>
      <path d="M130.5,27c15.12707,0 9.62761,25.81381 -8,17c-9.56765,-4.78382 4.92367,-16 10,-16" id="Stroke-1297461353"/>
      <path d="M138.5,42c0,-2.33707 0,3.09383 0,4c0,3.9017 -3.73078,7.46157 -5,10c-4.19698,8.39396 -20.38906,8.22188 -24,1" id="Stroke-1297461376"/>
    </g>
  </g>
  <g id="Frame-2" fill="none" fill-rule="nonzero" stroke="none" stroke-width="none" stroke-linecap="none" stroke-linejoin="miter" stroke-miterlimit="10" stroke-dasharray="" stroke-dashoffset="0" font-family="none" font-weight="none" font-size="none" text-anchor="none" style="mix-blend-mode: normal" visibility="hidden">
    <g id="Drawing" stroke="#000000" stroke-width="5" stroke-linecap="round">
      <path d="M10.5,6c0,10.05465 6,22.36618 6,31c0,2.25074 1,16.47577 1,10" id="Stroke-1297461382"/>
      <path d="M14.5,6c0,3.19446 9.27429,-0.72571 11,1c0.31504,0.31504 1.62542,6.25084 2,7c4.09377,8.18754 -10,7.83517 -10,11c0,1.66667 3.33333,0 5,0c4.07545,0 12.76145,-1.23855 15,1c1.14871,1.14871 1,6.28156 1,8c0,13.42485 -7.65612,15 -20,15" id="Stroke-1297461384"/>
      <path d="M57.5,28c2.39777,0 4.94378,0.88756 6,3c1.40617,2.81233 7,6.34544 7,10c0,21.36008 -35.71605,3.71605 -21,-11c12.95702,-12.95702 23.88201,25.559 33,21" id="Stroke-1297461407"/>
      <path d="M76.5,25c7.94949,0 9,9.06601 9,16c0,2.68742 -1,10.68742 -1,8c0,-24.78375 27,-20.93265 27,-1" id="Stroke-1297461409"/>
      <path d="M129.5,24c25.82991,0 1.79427,29.79427 -9,19c-7.23838,-7.23838 2.77218,-14 10,-14" id="Stroke-1297461411"/>
      <path d="M141.5,35c0,21.42726 -14.86633,24 -32,24" id="Stroke-1297461413"/>
    </g>
  </g>
  <style type="text/css">
    @keyframes flash { 0%   { visibility: visible; }
                       33.333333333333336%  { visibility: hidden;  } }
    #Frame-0 { animation: flash 0.30000000000000004s linear infinite 0s;    }
    #Frame-1 { animation: flash 0.30000000000000004s linear infinite 0.1s;    }
    #Frame-2 { animation: flash 0.30000000000000004s linear infinite 0.2s;    }
  </style>
</svg>
